name C:\Users\antoi\Documents\MyRepositories\upper-imu-dc\Results\main_tracking\Case_78\FLX01_linearAccelerations_groundFrame.mot
datacolumns 4
datarows 58
range 0.71000000 1.28000000
endheader 
time	radius_imu_x	radius_imu_y	radius_imu_z	
          0.71000000	          1.59764625	         10.69486384	          0.58516102	
          0.72000000	          1.66811124	         10.74449254	          0.54076362	
          0.73000000	          1.73501564	         10.79130113	          0.48074198	
          0.74000000	          1.79798824	         10.83557254	          0.40010945	
          0.75000000	          1.85530028	         10.87697053	          0.29998837	
          0.76000000	          1.90496649	         10.91451758	          0.18049304	
          0.77000000	          1.94652832	         10.94907293	          0.04668997	
          0.78000000	          1.97859526	         10.97984297	         -0.10004030	
          0.79000000	          1.99833813	         11.00633902	         -0.25572845	
          0.80000000	          2.00486574	         11.03029058	         -0.41453422	
          0.81000000	          2.01086330	         11.06038222	         -0.55015755	
          0.82000000	          1.93368150	         11.10293785	         -0.62259333	
          0.83000000	          1.86481099	         11.15408327	         -0.66099241	
          0.84000000	          1.78147784	         11.20353222	         -0.69565791	
          0.85000000	          1.68258566	         11.25093452	         -0.71957461	
          0.86000000	          1.57393109	         11.29605247	         -0.73640837	
          0.87000000	          1.46010927	         11.34086643	         -0.74349118	
          0.88000000	          1.34357369	         11.38593829	         -0.74185538	
          0.89000000	          1.21983689	         11.42266179	         -0.74647264	
          0.90000000	          1.09301315	         11.45873297	         -0.74253894	
          0.91000000	          0.96214652	         11.48977444	         -0.73797752	
          0.92000000	          0.82845299	         11.51414172	         -0.73667888	
          0.93000000	          0.69313188	         11.53322915	         -0.73563741	
          0.94000000	          0.55683206	         11.54518640	         -0.73792143	
          0.95000000	          0.42239047	         11.55188037	         -0.74141129	
          0.96000000	          0.29089412	         11.55384367	         -0.74586762	
          0.97000000	          0.16302026	         11.55006685	         -0.75402743	
          0.98000000	          0.03938946	         11.54035082	         -0.76692441	
          0.99000000	         -0.07964310	         11.52554234	         -0.78282315	
          1.00000000	         -0.19349126	         11.50620230	         -0.80018344	
          1.01000000	         -0.30069352	         11.48321296	         -0.81885663	
          1.02000000	         -0.39832624	         11.45661576	         -0.83864145	
          1.03000000	         -0.50338928	         11.41880605	         -0.85470235	
          1.04000000	         -0.59969865	         11.38337698	         -0.86894041	
          1.05000000	         -0.70318530	         11.34254154	         -0.88813346	
          1.06000000	         -0.79679641	         11.28754000	         -0.88467433	
          1.07000000	         -0.88967155	         11.23735418	         -0.87724654	
          1.08000000	         -0.98641792	         11.17767606	         -0.86126020	
          1.09000000	         -1.08255759	         11.11203768	         -0.83711683	
          1.10000000	         -1.17587557	         11.04248703	         -0.80280837	
          1.11000000	         -1.26635241	         10.96900631	         -0.75867379	
          1.12000000	         -1.35394507	         10.89092880	         -0.70656418	
          1.13000000	         -1.43773666	         10.80850627	         -0.64790734	
          1.14000000	         -1.51629032	         10.72292515	         -0.58325029	
          1.15000000	         -1.58862270	         10.63492328	         -0.51350670	
          1.16000000	         -1.65384362	         10.54484099	         -0.44044025	
          1.17000000	         -1.71099057	         10.45367417	         -0.36557737	
          1.18000000	         -1.75902765	         10.36252483	         -0.29044994	
          1.19000000	         -1.79738060	         10.27246010	         -0.21634909	
          1.20000000	         -1.82653427	         10.18330082	         -0.14525042	
          1.21000000	         -1.84595642	         10.09596894	         -0.07893072	
          1.22000000	         -1.85616383	         10.01152951	         -0.01721627	
          1.23000000	         -1.85811124	          9.92889815	          0.03824197	
          1.24000000	         -1.85263162	          9.84956682	          0.08901724	
          1.25000000	         -1.84127822	          9.77237908	          0.13238232	
          1.26000000	         -1.82484504	          9.69780959	          0.17373416	
          1.27000000	         -1.80369153	          9.62609938	          0.20938876	
          1.28000000	         -1.78020383	          9.55633471	          0.24319523	
